<svg width="16" height="16" viewBox="0 0 16 16" fill="none" xmlns="http://www.w3.org/2000/svg">
<g clip-path="url(#clip0)">
<path d="M14.8774 5.03271H14.4392V9.84926C14.4392 10.5992 14.0026 11.2773 13.1272 11.2773H4.55078V11.5063C4.55078 12.1693 5.3049 12.8386 6.07932 12.8386H12.6364L15.1449 14.3135L14.7811 12.8386H14.8774C15.6513 12.8386 16.0005 12.1709 16.0005 11.5063V6.17609C16.0005 5.51307 15.6513 5.03271 14.8774 5.03271Z" fill="#3480C0"/>
<path d="M11.8463 1.68628H1.88505C1.00862 1.68628 0 2.46484 0 3.21529V9.25224C0 9.94337 0.854568 10.4425 1.67427 10.5195L1.14081 12.5445L4.55909 10.5335H11.8463C12.7228 10.5335 13.5315 10.0022 13.5315 9.25224V4.36804V3.21529C13.5315 2.46484 12.7222 1.68628 11.8463 1.68628ZM3.40474 6.7823C2.90772 6.7823 2.5049 6.37949 2.5049 5.88248C2.5049 5.38547 2.90772 4.98266 3.40474 4.98266C3.90125 4.98266 4.30459 5.38547 4.30459 5.88248C4.30459 6.37949 3.90125 6.7823 3.40474 6.7823ZM6.76577 6.7823C6.26874 6.7823 5.86592 6.37949 5.86592 5.88248C5.86592 5.38547 6.26874 4.98266 6.76577 4.98266C7.26279 4.98266 7.66562 5.38547 7.66562 5.88248C7.66562 6.37949 7.26279 6.7823 6.76577 6.7823ZM10.1273 6.7823C9.63029 6.7823 9.22695 6.37949 9.22695 5.88248C9.22695 5.38547 9.63029 4.98266 10.1273 4.98266C10.6233 4.98266 11.0272 5.38547 11.0272 5.88248C11.0272 6.37949 10.6233 6.7823 10.1273 6.7823Z" fill="#3480C0"/>
</g>
<defs>
<clipPath id="clip0">
<rect width="16" height="16" fill="white"/>
</clipPath>
</defs>
</svg>
