<svg width="23" height="23" viewBox="0 0 23 23" fill="none" xmlns="http://www.w3.org/2000/svg">
<g clip-path="url(#clip0)">
<path d="M16.9934 5.67895C13.8863 2.57188 8.78677 2.52769 5.6797 5.63476C2.57262 8.74183 2.57262 13.8856 5.6797 16.9927C8.78677 20.0997 13.8863 20.0555 16.9934 16.9485C20.1005 13.8414 20.1005 8.78602 16.9934 5.67895ZM13.6788 14.9597L11.3586 12.6395L8.99426 15.0039C8.62877 15.3694 8.0337 15.3692 7.66843 15.0039C7.30295 14.6384 7.30295 14.0436 7.66843 13.6781L10.0328 11.3137L7.66843 8.94932C7.30295 8.58383 7.30295 7.98898 7.66843 7.6235C8.03392 7.25801 8.62877 7.25801 8.99426 7.6235L11.3586 9.98788L13.6788 7.66769C14.0443 7.3022 14.6392 7.3022 15.0047 7.66769C15.3699 8.03295 15.3702 8.62803 15.0047 8.99351L12.6845 11.3137L15.0047 13.6339C15.3699 13.9992 15.3702 14.5942 15.0047 14.9597C14.6392 15.3252 14.0441 15.325 13.6788 14.9597Z" fill="#3480C0"/>
</g>
<defs>
<clipPath id="clip0">
<rect width="16" height="16" fill="white" transform="translate(11.3145) rotate(45)"/>
</clipPath>
</defs>
</svg>
