<svg width="16" height="16" viewBox="0 0 16 16" fill="none" xmlns="http://www.w3.org/2000/svg">
<path d="M14.3337 4C14.3336 4.16329 14.2737 4.32089 14.1652 4.44291C14.0567 4.56494 13.9072 4.6429 13.745 4.662L13.667 4.66667H13.1037L12.283 13.0133C12.2383 13.4662 12.0268 13.8863 11.6895 14.1919C11.3523 14.4975 10.9134 14.6667 10.4583 14.6667H5.54233C5.08722 14.6667 4.64837 14.4975 4.31113 14.1919C3.97388 13.8863 3.76234 13.4662 3.71766 13.0133L2.89699 4.66667H2.33366C2.15685 4.66667 1.98728 4.59643 1.86225 4.4714C1.73723 4.34638 1.66699 4.17681 1.66699 4C1.66699 3.82319 1.73723 3.65362 1.86225 3.5286C1.98728 3.40357 2.15685 3.33333 2.33366 3.33333H5.66699C5.66699 3.02692 5.72734 2.7235 5.84461 2.44041C5.96187 2.15731 6.13374 1.90009 6.35041 1.68342C6.56708 1.46675 6.8243 1.29488 7.1074 1.17761C7.39049 1.06035 7.69391 1 8.00033 1C8.30674 1 8.61016 1.06035 8.89325 1.17761C9.17635 1.29488 9.43357 1.46675 9.65024 1.68342C9.86691 1.90009 10.0388 2.15731 10.156 2.44041C10.2733 2.7235 10.3337 3.02692 10.3337 3.33333H13.667C13.8438 3.33333 14.0134 3.40357 14.1384 3.5286C14.2634 3.65362 14.3337 3.82319 14.3337 4ZM9.50033 6.16667C9.3795 6.16667 9.26276 6.21043 9.1717 6.28984C9.08065 6.36926 9.02142 6.47896 9.00499 6.59867L9.00033 6.66667V11.3333L9.00499 11.4013C9.02146 11.521 9.08069 11.6307 9.17175 11.7101C9.26281 11.7894 9.37952 11.8332 9.50033 11.8332C9.62113 11.8332 9.73784 11.7894 9.8289 11.7101C9.91996 11.6307 9.97919 11.521 9.99566 11.4013L10.0003 11.3333V6.66667L9.99566 6.59867C9.97923 6.47896 9.92 6.36926 9.82895 6.28984C9.73789 6.21043 9.62115 6.16667 9.50033 6.16667ZM6.50033 6.16667C6.3795 6.16667 6.26276 6.21043 6.1717 6.28984C6.08065 6.36926 6.02142 6.47896 6.00499 6.59867L6.00033 6.66667V11.3333L6.00499 11.4013C6.02146 11.521 6.08069 11.6307 6.17175 11.7101C6.26281 11.7894 6.37952 11.8332 6.50033 11.8332C6.62113 11.8332 6.73784 11.7894 6.8289 11.7101C6.91996 11.6307 6.97919 11.521 6.99566 11.4013L7.00033 11.3333V6.66667L6.99566 6.59867C6.97923 6.47896 6.92 6.36926 6.82895 6.28984C6.73789 6.21043 6.62115 6.16667 6.50033 6.16667ZM8.00033 2.33333C7.73511 2.33333 7.48075 2.43869 7.29322 2.62623C7.10568 2.81376 7.00033 3.06812 7.00033 3.33333H9.00033C9.00033 3.06812 8.89497 2.81376 8.70743 2.62623C8.5199 2.43869 8.26554 2.33333 8.00033 2.33333Z" fill="#8A93B1"/>
</svg>
