<svg id="Icon_Set" height="512" viewBox="0 0 256 256" width="512" xmlns="http://www.w3.org/2000/svg"><g><g><g><g><path d="m229.51 241.634h-203.02c-4.317 0-7.816-3.499-7.816-7.816v-193.152c0-4.317 3.499-7.816 7.816-7.816h166.485c2.449 0 4.756 1.148 6.233 3.101l36.535 48.296c1.027 1.358 1.583 3.013 1.583 4.716v144.857c0 4.315-3.499 7.814-7.816 7.814z" fill="#5fcdff"/></g><g><path d="m41.403 14.369h136.867v78.761h-136.867z" fill="#ffe2e2"/></g><g><path d="m136.096 33.203h19.422v41.094h-19.422z" fill="#87828e"/></g><g><path d="m34.167 32.853v208.778h-7.678c-4.317 0-7.816-3.499-7.816-7.816v-193.146c0-4.317 3.499-7.816 7.816-7.816z" fill="#73d7f9"/></g><g><path d="m41.398 14.374h15.494v78.751h-15.494z" fill="#ffefee"/></g><g><path d="m237.327 88.962v144.853c0 4.317-3.499 7.816-7.816 7.816h-7.678v-155.292l-40.461-53.486h11.606c2.449 0 4.756 1.148 6.234 3.101l36.532 48.293c1.027 1.357 1.583 3.013 1.583 4.715z" fill="#30b6ff"/></g><g><path d="m162.779 14.374h15.494v78.751h-15.494z" fill="#ffcfcf"/></g></g><g><g><path d="m51.686 149.702h152.629v91.932h-152.629z" fill="#ffe2e2"/></g></g></g><g fill="#5f266d"><path d="m238.934 81.833-36.532-48.292c-2.221-2.936-5.743-4.688-9.423-4.688h-10.709v-14.484c0-2.209-1.791-4-4-4h-136.868c-2.209 0-4 1.791-4 4v14.484h-10.912c-6.516 0-11.816 5.301-11.816 11.816v193.146c0 6.515 5.301 11.816 11.816 11.816h203.021c6.516 0 11.816-5.301 11.816-11.816v-144.853c0-2.557-.85-5.088-2.393-7.129zm-193.532-63.464h128.868v70.761h-128.868zm154.912 219.262h-144.628v-83.929h144.629v83.929zm33.013-3.816c0 2.104-1.712 3.816-3.816 3.816h-21.196v-87.929c0-2.209-1.791-4-4-4h-152.629c-2.209 0-4 1.791-4 4v87.929h-21.196c-2.104 0-3.816-1.712-3.816-3.816v-193.146c0-2.104 1.712-3.816 3.816-3.816h10.913v56.277c0 2.209 1.791 4 4 4h136.867c2.209 0 4-1.791 4-4v-56.277h10.708c1.188 0 2.326.566 3.043 1.514l36.532 48.292c.499.659.773 1.477.773 2.303v144.853z"/><path d="m155.518 29.203h-19.422c-2.209 0-4 1.791-4 4v41.094c0 2.209 1.791 4 4 4h19.422c2.209 0 4-1.791 4-4v-41.094c0-2.209-1.791-4-4-4zm-4 41.093h-11.422v-33.093h11.422z"/><path d="m151.924 218.796h-4.849c-2.209 0-4 1.791-4 4s1.791 4 4 4h4.849c2.209 0 4-1.791 4-4s-1.791-4-4-4z"/><path d="m132.076 218.796h-28c-2.209 0-4 1.791-4 4s1.791 4 4 4h28c2.209 0 4-1.791 4-4s-1.791-4-4-4z"/><path d="m77.86 172.541h100.28c2.209 0 4-1.791 4-4s-1.791-4-4-4h-100.28c-2.209 0-4 1.791-4 4s1.791 4 4 4z"/><path d="m77.86 199.668h100.28c2.209 0 4-1.791 4-4s-1.791-4-4-4h-100.28c-2.209 0-4 1.791-4 4s1.791 4 4 4z"/></g></g></svg>