<svg width="16" height="16" viewBox="0 0 16 16" fill="none" xmlns="http://www.w3.org/2000/svg">
<g clip-path="url(#clip0)">
<path d="M13.1427 8C12.8271 8 12.5712 8.25583 12.5712 8.57143V14.2856C12.5712 14.6012 12.3154 14.857 11.9998 14.857H1.71426C1.39866 14.857 1.14283 14.6012 1.14283 14.2856V2.85721C1.14283 2.54161 1.39866 2.28578 1.71426 2.28578H8.57131C8.88691 2.28578 9.14275 2.02994 9.14275 1.71434C9.14275 1.39874 8.88691 1.14294 8.57131 1.14294H1.71426C0.767501 1.14294 0 1.91045 0 2.85721V14.2856C0 15.2324 0.767501 15.9999 1.71426 15.9999H11.9998C12.9466 15.9999 13.7141 15.2324 13.7141 14.2856V8.5714C13.7141 8.25583 13.4583 8 13.1427 8Z" fill="#174477"/>
<path d="M15.3603 0.641026C14.9501 0.230674 14.3936 0.000186218 13.8133 0.000253181C13.2327 -0.0014209 12.6756 0.229469 12.2665 0.641394L4.73967 8.16754C4.67723 8.23046 4.63012 8.30693 4.60196 8.39097L3.45913 11.8195C3.35939 12.1189 3.52127 12.4425 3.8207 12.5422C3.87879 12.5615 3.93963 12.5714 4.00083 12.5715C4.06217 12.5714 4.12314 12.5615 4.1814 12.5424L7.60992 11.3995C7.69413 11.3714 7.77064 11.3241 7.83335 11.2613L15.3601 3.7345C16.2144 2.88032 16.2145 1.49531 15.3603 0.641026Z" fill="#174477"/>
</g>
<defs>
<clipPath id="clip0">
<rect width="16" height="16" fill="white"/>
</clipPath>
</defs>
</svg>
