<svg width="7" height="7" viewBox="0 0 7 7" fill="#D0D0D0" xmlns="http://www.w3.org/2000/svg">
    <path d="M6.125 2.1875V1.96876C6.125 0.883114 5.24187 0 4.15625 0C3.07062 0 2.18749 0.883114 2.18749 1.96876V3.50001H0.875V4.37501H2.13591C2.03338 5.0679 1.77921 5.73007 1.38599 6.31984C1.29647 6.45399 1.28815 6.6266 1.36421 6.76888C1.44047 6.91116 1.58872 7.00002 1.75001 7.00002H5.6875V6.12501H2.5028C2.76908 5.57359 2.93985 4.98322 3.01566 4.37501H4.37499V3.50001H3.0625V1.96876C3.0625 1.36569 3.55319 0.875006 4.15625 0.875006C4.75931 0.875006 5.25 1.36569 5.25 1.96876V2.1875H6.125Z"/>
</svg>
