<svg width="10" height="12" viewBox="0 0 10 12" fill="#174477" xmlns="http://www.w3.org/2000/svg">
    <path d="M9.50001 3.75V3.37501C9.50001 1.51391 7.98607 0 6.125 0C4.26392 0 2.74999 1.51391 2.74999 3.37501V6.00001H0.5V7.50002H2.66157C2.48579 8.68783 2.05007 9.82298 1.37598 10.834C1.22253 11.064 1.20825 11.3599 1.33864 11.6038C1.46937 11.8477 1.72352 12 2.00001 12H8.75V10.5H3.29051C3.747 9.55473 4.03974 8.54266 4.1697 7.50002H6.49999V6.00001H4.25V3.37501C4.25 2.34119 5.09118 1.50001 6.125 1.50001C7.15882 1.50001 8 2.34119 8 3.37501V3.75H9.50001Z"/>
</svg>
