<svg width="16" height="16" viewBox="0 0 16 16" fill="#174477" xmlns="http://www.w3.org/2000/svg">
    <path d="M10.226 0.521675L14.9564 0.521675C15.4434 0.521675 15.826 0.904285 15.826 1.39124V14.6087C15.826 15.0957 15.4434 15.4783 14.9564 15.4783L10.226 15.4783C9.73905 15.4783 9.35644 15.0957 9.35644 14.6087C9.35644 14.1217 9.73905 13.7391 10.226 13.7391H14.0869V2.26081H10.226C9.73905 2.26081 9.35644 1.8782 9.35644 1.39124C9.35644 0.904285 9.73905 0.521675 10.226 0.521675ZM11.3043 8.62606C11.4782 8.46954 11.5651 8.24345 11.5651 7.99997C11.5651 7.75649 11.4782 7.5478 11.3043 7.37388L7.75644 3.913C7.40861 3.58256 6.86948 3.58256 6.52165 3.93039C6.19122 4.27822 6.19122 4.81735 6.53905 5.16518L8.57383 7.1304H1.04339C0.556437 7.1304 0.173828 7.51301 0.173828 7.99997C0.173828 8.48693 0.556437 8.86954 1.04339 8.86954H8.57383L6.55644 10.8522C6.20861 11.1826 6.20861 11.7391 6.53905 12.087C6.86948 12.4348 7.426 12.4348 7.77383 12.1043L11.3043 8.62606Z"/>
</svg>
