<svg width="16" height="16" viewBox="0 0 16 16" fill="none" xmlns="http://www.w3.org/2000/svg">
<g clip-path="url(#clip0)">
<path d="M15.4142 6.58579C16.1953 7.36683 16.1953 8.63317 15.4142 9.41422C14.6332 10.1953 13.3668 10.1953 12.5858 9.41422C11.8047 8.63317 11.8047 7.36683 12.5858 6.58579C13.3668 5.80474 14.6332 5.80474 15.4142 6.58579Z" fill="#3480C0"/>
<path d="M9.41419 6.58579C10.1952 7.36683 10.1952 8.63317 9.41419 9.41422C8.63315 10.1953 7.36682 10.1953 6.58578 9.41422C5.80474 8.63317 5.80474 7.36683 6.58578 6.58579C7.36682 5.80474 8.63315 5.80474 9.41419 6.58579Z" fill="#3480C0"/>
<path d="M3.41518 6.58579C4.19623 7.36683 4.19623 8.63317 3.41518 9.41422C2.63414 10.1953 1.36781 10.1953 0.586761 9.41422C-0.194285 8.63317 -0.194285 7.36683 0.586761 6.58579C1.36781 5.80474 2.63414 5.80474 3.41518 6.58579Z" fill="#3480C0"/>
</g>
<defs>
<clipPath id="clip0">
<rect width="16" height="16" fill="white"/>
</clipPath>
</defs>
</svg>
