<svg width="16" height="16" viewBox="0 0 16 16" fill="none" xmlns="http://www.w3.org/2000/svg">
<path d="M10.3119 12.4949H5.6896C5.39506 12.4949 5.15625 12.7337 5.15625 13.0282C5.15625 13.3228 5.39503 13.5616 5.6896 13.5616H10.3118C10.6064 13.5616 10.8452 13.3228 10.8452 13.0282C10.8452 12.7337 10.6064 12.4949 10.3119 12.4949Z" fill="#3480C0"/>
<path d="M10.3119 10.8126H5.6896C5.39506 10.8126 5.15625 11.0514 5.15625 11.346C5.15625 11.6405 5.39503 11.8793 5.6896 11.8793H10.3118C10.6064 11.8793 10.8452 11.6405 10.8452 11.346C10.8452 11.0514 10.6064 10.8126 10.3119 10.8126Z" fill="#3480C0"/>
<path d="M14.7556 4.18464H13.0586V1.09792C13.0586 0.803388 12.8198 0.564575 12.5253 0.564575H3.47475C3.18022 0.564575 2.94141 0.803356 2.94141 1.09792V4.18464H1.24444C0.55825 4.18464 0 4.74292 0 5.42911V10.7948C0 11.481 0.55825 12.0392 1.24444 12.0392H2.9415V14.9022C2.9415 15.1967 3.18028 15.4355 3.47484 15.4355H12.5252C12.8197 15.4355 13.0585 15.1967 13.0585 14.9022V12.0392H14.7556C15.4418 12.0392 16 11.481 16 10.7948V5.42911C16 4.74295 15.4418 4.18464 14.7556 4.18464ZM4.00806 1.63126H11.9919V4.18464H4.00806V1.63126ZM11.9918 14.3688H4.00819C4.00819 14.2646 4.00819 10.1344 4.00819 10.0055H11.9918C11.9918 10.1376 11.9918 14.2686 11.9918 14.3688ZM12.5253 7.31636H11.1677C10.8731 7.31636 10.6343 7.07757 10.6343 6.78301C10.6343 6.48845 10.8731 6.24967 11.1677 6.24967H12.5253C12.8198 6.24967 13.0586 6.48845 13.0586 6.78301C13.0586 7.07757 12.8198 7.31636 12.5253 7.31636Z" fill="#3480C0"/>
</svg>
