<svg width="24" height="24" viewBox="0 0 24 24" fill="none" xmlns="http://www.w3.org/2000/svg">
<path d="M20.2481 20.4062C20.205 17.6409 19.3435 15.1264 17.8117 13.3059C16.2889 11.4965 14.2251 10.5 11.9998 10.5C9.77458 10.5 7.71077 11.4965 6.18794 13.3059C4.65766 15.1245 3.79671 17.6355 3.75171 20.3974C4.61702 20.8308 8.1978 22.5 11.9998 22.5C16.1111 22.5 19.4457 20.8406 20.2481 20.4062Z" fill="#3480C0"/>
<path d="M12 9.75C14.2782 9.75 16.125 7.90317 16.125 5.625C16.125 3.34683 14.2782 1.5 12 1.5C9.72183 1.5 7.875 3.34683 7.875 5.625C7.875 7.90317 9.72183 9.75 12 9.75Z" fill="#3480C0"/>
</svg>
