<svg width="16" height="16" viewBox="0 0 16 16" fill="#8A93B1" xmlns="http://www.w3.org/2000/svg">
    <g clip-path="url(#clip0)">
        <path d="M0.26757 5.33508H15.7316C15.854 5.33573 15.9612 5.25306 15.9914 5.13446C16.0217 5.01586 15.9673 4.89193 15.8596 4.83386L8.12758 0.567915C8.04764 0.525213 7.95169 0.525213 7.87163 0.567915L0.139597 4.83386C0.0319326 4.89193 -0.0223552 5.01586 0.00797828 5.13446C0.0381815 5.25306 0.145325 5.33573 0.26757 5.33508ZM7.9996 2.13562C8.44145 2.13562 8.79947 2.49376 8.79947 2.93548C8.79947 3.37734 8.44145 3.73535 7.9996 3.73535C7.55788 3.73535 7.19974 3.37734 7.19974 2.93548C7.19974 2.49376 7.55788 2.13562 7.9996 2.13562Z"/>
        <path d="M15.732 13.867H15.1987V13.0672C15.1987 12.9199 15.0793 12.8005 14.9321 12.8005H1.06777C0.920528 12.8005 0.801147 12.9199 0.801147 13.0672V13.867H0.267903C0.120663 13.867 0.00128174 13.9864 0.00128174 14.1336V15.2001C0.00128174 15.3474 0.120663 15.4668 0.267903 15.4668H15.732C15.8792 15.4668 15.9986 15.3474 15.9986 15.2001V14.1336C15.9986 13.9864 15.8792 13.867 15.732 13.867Z"/>
        <path d="M9.26938 12.2672L8.80513 6.44163L9.03452 5.86829H6.96545L7.19471 6.44163L6.73059 12.2672H9.26938Z"/>
        <path d="M11.7647 5.86829L11.994 6.44163L11.5298 12.2672H14.0686L13.6044 6.44163L13.8337 5.86829H11.7647Z"/>
        <path d="M4.47022 12.2672L4.00597 6.44163L4.23536 5.86829H2.16631L2.39557 6.44163L1.93146 12.2672H4.47022Z"/>
    </g>
    <defs>
        <clipPath id="clip0">
            <rect width="16" height="16" fill="white"/>
        </clipPath>
    </defs>
</svg>
