<svg width="16" height="16" viewBox="0 0 16 16" fill="#8A93B1" xmlns="http://www.w3.org/2000/svg">
    <path d="M13.5385 0H3.38462C2.62112 0 2 0.621125 2 1.38462V14.6154C2 15.3789 2.62112 16 3.38462 16H13.5385C13.7934 16 14 15.7933 14 15.5385V0.461531C14 0.206656 13.7933 0 13.5385 0ZM4.30769 2H11.6923C11.9472 2 12.1538 2.20666 12.1538 2.46153C12.1538 2.71641 11.9472 2.92306 11.6923 2.92306H4.30769C4.05278 2.92306 3.84616 2.71641 3.84616 2.46153C3.84616 2.20666 4.05281 2 4.30769 2ZM4.30769 4.46153H8.01538C8.27028 4.46153 8.47691 4.66819 8.47691 4.92306C8.47691 5.17794 8.27025 5.38459 8.01538 5.38459H4.30769C4.05278 5.38459 3.84616 5.17794 3.84616 4.92306C3.84616 4.66819 4.05281 4.46153 4.30769 4.46153ZM13.0769 15.0769H3.38462C3.13012 15.0769 2.92309 14.8699 2.92309 14.6154V14H13.0769V15.0769Z"/>
</svg>
