<svg width="16" height="16" viewBox="0 0 16 16" fill="#8A93B1" xmlns="http://www.w3.org/2000/svg">
    <path d="M13.0196 4.78121H7.24706L6.09882 3.41651C6.0602 3.37008 6.00231 3.34404 5.94196 3.34592H1.28471C0.573647 3.3511 0 3.92898 0 4.64004V13.0338C0.000862745 13.7473 0.579059 14.3255 1.29255 14.3263H13.0196C13.7331 14.3255 14.3113 13.7473 14.3122 13.0338V6.07376C14.3113 5.36027 13.7331 4.78208 13.0196 4.78121Z"/>
    <path d="M14.7153 3.1091H8.94117L7.79293 1.74439C7.75431 1.69796 7.69642 1.67192 7.63607 1.6738H2.98039C2.33522 1.67486 1.78965 2.15149 1.70197 2.79066H5.94823C6.1709 2.79012 6.38231 2.88839 6.52548 3.0589L7.50588 4.22439H13.0196C14.0394 4.22612 14.8657 5.05243 14.8674 6.07223V12.6416C15.514 12.561 15.9995 12.0117 16 11.3601V4.40008C15.9983 3.69023 15.4251 3.11427 14.7153 3.1091Z"/>
</svg>
