<svg width="16" height="16" viewBox="0 0 16 16" fill="#8A93B1" xmlns="http://www.w3.org/2000/svg">
    <g clip-path="url(#clip0)">
        <path d="M13.6904 8.54126H12.4531C12.5792 8.88657 12.6481 9.25923 12.6481 9.64764V14.3242C12.6481 14.4861 12.6199 14.6416 12.5686 14.7861H14.6143C15.3784 14.7861 16.0001 14.1645 16.0001 13.4003V10.8509C16.0001 9.57739 14.964 8.54126 13.6904 8.54126Z"/>
        <path d="M3.35204 9.64764C3.35204 9.2592 3.42094 8.88657 3.54707 8.54126H2.30969C1.03613 8.54126 0 9.57739 0 10.851V13.4004C0 14.1645 0.621657 14.7862 1.38582 14.7862H3.43151C3.38023 14.6416 3.35204 14.4861 3.35204 14.3242V9.64764Z"/>
        <path d="M9.41432 7.33801H6.58551C5.31194 7.33801 4.27582 8.37414 4.27582 9.6477V14.3243C4.27582 14.5794 4.48263 14.7862 4.73776 14.7862H11.2621C11.5172 14.7862 11.724 14.5794 11.724 14.3243V9.6477C11.724 8.37414 10.6879 7.33801 9.41432 7.33801Z"/>
        <path d="M7.99998 1.21375C6.46835 1.21375 5.22229 2.45981 5.22229 3.99147C5.22229 5.03038 5.7957 5.93772 6.64251 6.4141C7.04416 6.64004 7.50723 6.76916 7.99998 6.76916C8.49273 6.76916 8.95579 6.64004 9.35744 6.4141C10.2043 5.93772 10.7777 5.03035 10.7777 3.99147C10.7777 2.45984 9.5316 1.21375 7.99998 1.21375Z"/>
        <path d="M3.12233 3.80286C1.97686 3.80286 1.04498 4.73473 1.04498 5.8802C1.04498 7.02568 1.97686 7.95755 3.12233 7.95755C3.41289 7.95755 3.68958 7.89737 3.94093 7.78918C4.37549 7.60208 4.7338 7.27089 4.95552 6.85605C5.11115 6.56489 5.19968 6.23274 5.19968 5.8802C5.19968 4.73476 4.2678 3.80286 3.12233 3.80286Z"/>
        <path d="M12.8776 3.80286C11.7322 3.80286 10.8003 4.73473 10.8003 5.8802C10.8003 6.23277 10.8888 6.56492 11.0445 6.85605C11.2662 7.27093 11.6245 7.60211 12.059 7.78918C12.3104 7.89737 12.5871 7.95755 12.8776 7.95755C14.0231 7.95755 14.955 7.02568 14.955 5.8802C14.955 4.73473 14.0231 3.80286 12.8776 3.80286Z"/>
    </g>
    <defs>
        <clipPath id="clip0">
            <rect width="16" height="16"/>
        </clipPath>
    </defs>
</svg>
