<svg width="16" height="16" viewBox="0 0 16 16" fill="#8A93B1" xmlns="http://www.w3.org/2000/svg">
    <path d="M5.4375 5.90572V7.69025C5.4375 8.23744 5.88117 8.67947 6.42671 8.67947H6.79643V15.0108C6.79643 15.558 7.2401 16 7.78564 16H9.57016C10.1173 16 10.5594 15.5563 10.5594 15.0108V5.90572C10.5594 5.35853 10.1157 4.9165 9.57016 4.9165H8.99175H8.0502H6.42671C5.87952 4.9165 5.4375 5.36017 5.4375 5.90572Z"/>
    <path d="M8.6794 3.76625C9.71943 3.76625 10.5625 2.92315 10.5625 1.88313C10.5625 0.843104 9.71943 0 8.6794 0C7.63938 0 6.79626 0.843104 6.79626 1.88313C6.79626 2.92315 7.63938 3.76625 8.6794 3.76625Z"/>
</svg>
