<svg width="16" height="16" viewBox="0 0 16 16" fill="#8A93B1" xmlns="http://www.w3.org/2000/svg">
    <path d="M4.75 9.68752C3.94463 9.68752 3.20887 9.38415 2.65062 8.88586C2.25569 9.41733 2.03125 10.099 2.03125 10.7813V11.5V13.5C2.03125 14.017 2.45181 14.4375 2.96875 14.4375H6.53125C7.04819 14.4375 7.46875 14.017 7.46875 13.5V11.5V10.7813C7.46875 10.099 7.24431 9.41733 6.84937 8.88586C6.29112 9.38415 5.55538 9.68752 4.75 9.68752Z"/>
    <path d="M14.5938 1.5625H1.40625C0.630844 1.5625 0 2.19334 0 2.96875V10.0938C0 10.7617 0.468313 11.322 1.09375 11.4646V10.7812C1.09375 9.82981 1.43359 8.87556 2.02612 8.16322C2.03062 8.15781 2.03528 8.15256 2.03981 8.14719C1.75672 7.67419 1.59375 7.12144 1.59375 6.53125C1.59375 4.79091 3.00962 3.375 4.75 3.375C6.49038 3.375 7.90625 4.79091 7.90625 6.53125C7.90625 7.12144 7.74328 7.67419 7.46019 8.14716C7.46472 8.15253 7.46937 8.15778 7.47391 8.16322C8.06641 8.87556 8.40625 9.82981 8.40625 10.7812V11.5H14.5938C15.3692 11.5 16 10.8692 16 10.0938V2.96875C16 2.19334 15.3692 1.5625 14.5938 1.5625ZM9 9C8.74113 9 8.53125 8.79012 8.53125 8.53125C8.53125 8.27238 8.74113 8.0625 9 8.0625C9.25887 8.0625 9.46875 8.27238 9.46875 8.53125C9.46875 8.79012 9.25887 9 9 9ZM9 7C8.74113 7 8.53125 6.79012 8.53125 6.53125C8.53125 6.27238 8.74113 6.0625 9 6.0625C9.25887 6.0625 9.46875 6.27238 9.46875 6.53125C9.46875 6.79012 9.25887 7 9 7ZM9 5.00006C8.74113 5.00006 8.53125 4.79019 8.53125 4.53131C8.53125 4.27244 8.74113 4.06256 9 4.06256C9.25887 4.06256 9.46875 4.27244 9.46875 4.53131C9.46875 4.79019 9.25887 5.00006 9 5.00006ZM13.5 9H11C10.7411 9 10.5312 8.79012 10.5312 8.53125C10.5312 8.27238 10.7411 8.0625 11 8.0625H13.5C13.7589 8.0625 13.9688 8.27238 13.9688 8.53125C13.9688 8.79012 13.7589 9 13.5 9ZM13.5 7H11C10.7411 7 10.5312 6.79012 10.5312 6.53125C10.5312 6.27238 10.7411 6.0625 11 6.0625H13.5C13.7589 6.0625 13.9688 6.27238 13.9688 6.53125C13.9688 6.79012 13.7589 7 13.5 7ZM13.5 5H11C10.7411 5 10.5312 4.79012 10.5312 4.53125C10.5312 4.27238 10.7411 4.0625 11 4.0625H13.5C13.7589 4.0625 13.9688 4.27238 13.9688 4.53125C13.9688 4.79012 13.7589 5 13.5 5Z"/>
    <path d="M4.75 8.75C5.97538 8.75 6.96875 7.75663 6.96875 6.53125C6.96875 5.30587 5.97538 4.3125 4.75 4.3125C3.52462 4.3125 2.53125 5.30587 2.53125 6.53125C2.53125 7.75663 3.52462 8.75 4.75 8.75Z"/>
</svg>
