<svg width="16" height="16" viewBox="0 0 16 16" fill="#8A93B1" xmlns="http://www.w3.org/2000/svg">
    <g clip-path="url(#clip0)">
        <path d="M10.7834 3.938V2.1645C10.7834 1.88657 10.5581 1.66125 10.2801 1.66125H5.71946C5.44152 1.66125 5.21621 1.88657 5.21621 2.1645V3.938H3.78925V14.3385H12.2103V3.938H10.7834ZM9.77689 3.934H6.22271V2.66775H9.77686V3.934H9.77689Z"/>
        <path d="M1.71065 3.93811C0.767405 3.93811 0 4.70548 0 5.64873V12.628C0 13.5712 0.767405 14.3386 1.71065 14.3386H2.78293V3.93811H1.71065Z"/>
        <path d="M14.2896 3.93811H13.2173V14.3387H14.2896C15.2328 14.3387 16.0002 13.5712 16.0002 12.628V5.64873C16.0002 4.70548 15.2328 3.93811 14.2896 3.93811Z"/>
    </g>
    <defs>
        <clipPath id="clip0">
            <rect width="16" height="16" fill="white"/>
        </clipPath>
    </defs>
</svg>
