<svg width="16" height="16" viewBox="0 0 16 16" fill="#8A93B1" xmlns="http://www.w3.org/2000/svg">
    <path d="M2.44752 1.88916C2.44709 1.88916 2.4466 1.88916 2.44617 1.88916C2.29484 1.88916 2.15251 1.94815 2.04504 2.05536C1.93638 2.16375 1.87653 2.30807 1.87653 2.46171V11.0471C1.87653 11.3619 2.13366 11.6186 2.44978 11.6195C3.78247 11.6226 6.01527 11.9004 7.55558 13.5123V4.5275C7.55558 4.42078 7.52832 4.32052 7.47688 4.23756C6.21265 2.20162 3.78323 1.89228 2.44752 1.88916Z"/>
    <path d="M14.1236 11.0461V2.46074C14.1236 2.30709 14.0637 2.16277 13.9551 2.05438C13.8476 1.94717 13.7051 1.88818 13.554 1.88818C13.5535 1.88818 13.553 1.88818 13.5526 1.88818C12.2169 1.89136 9.78751 2.2007 8.52323 4.23664C8.47179 4.3196 8.44458 4.41986 8.44458 4.52658V13.5113C9.9849 11.8994 12.2177 11.6217 13.5504 11.6185C13.8664 11.6177 14.1236 11.3609 14.1236 11.0461Z"/>
    <path d="M15.4276 3.86816H15.0125V11.0462C15.0125 11.85 14.3575 12.5054 13.5525 12.5074C12.4221 12.5101 10.5582 12.7312 9.23816 13.9805C11.5212 13.4215 13.9278 13.7849 15.2994 14.0975C15.4707 14.1365 15.6477 14.0962 15.7849 13.9868C15.9216 13.8777 16 13.7147 16 13.5396V4.44061C16.0001 4.12497 15.7432 3.86816 15.4276 3.86816Z"/>
    <path d="M0.987586 11.0462V3.86816H0.572446C0.256863 3.86816 0 4.12497 0 4.44061V13.5395C0 13.7146 0.078438 13.8776 0.215166 13.9867C0.352271 14.096 0.529079 14.1364 0.700608 14.0973C2.0722 13.7847 4.47894 13.4214 6.76183 13.9804C5.44185 12.7311 3.57798 12.5101 2.44758 12.5074C1.64256 12.5054 0.987586 11.85 0.987586 11.0462Z"/>
</svg>
