<svg width="16" height="16" viewBox="0 0 16 16" fill="#8A93B1" xmlns="http://www.w3.org/2000/svg">
    <path d="M8.85226 7.66979C9.03659 7.57552 9.24193 7.52569 9.45497 7.52569C9.80801 7.52569 10.1399 7.66274 10.3901 7.91165L10.9288 7.37307C12.2617 7.8403 13.8034 7.54119 14.8689 6.47566C15.7655 5.57907 16.1191 4.34549 15.9304 3.1827C15.9096 3.05464 15.8189 2.94902 15.6955 2.90918C15.5721 2.86928 15.4366 2.9017 15.3449 2.99346L14.5452 3.79321C13.8939 4.4445 12.8378 4.4445 12.1865 3.79321C11.5352 3.14192 11.5352 2.0859 12.1865 1.43461L12.9863 0.634849C13.0781 0.543094 13.1108 0.407618 13.0708 0.28415C13.0309 0.160627 12.9251 0.0701825 12.797 0.0493862C11.6343 -0.139364 10.4006 0.214228 9.50409 1.11082C8.42269 2.19222 8.13165 3.76379 8.62901 5.11009L7.46082 6.27829L8.85226 7.66979Z"/>
    <path d="M6.72347 9.78661L5.33787 8.401L0.492766 13.2461C-0.137237 13.8761 -0.137237 14.8975 0.492766 15.5275C1.12277 16.1575 2.14419 16.1575 2.77419 15.5275L6.95097 11.3508C6.5297 10.9272 6.45377 10.2878 6.72347 9.78661Z"/>
    <path d="M9.81371 8.49313C9.71464 8.39406 9.58473 8.3445 9.45488 8.3445C9.32503 8.3445 9.19512 8.39406 9.09605 8.49313L8.80681 8.78237L3.65457 3.63012L3.89539 3.3893C4.11481 3.16993 4.08758 2.80602 3.83748 2.62186L1.73536 1.07371C1.53334 0.924968 1.253 0.946091 1.07561 1.12349L0.183058 2.01609C0.00566167 2.19349 -0.0154621 2.47388 0.133278 2.67584L1.68137 4.77796C1.86554 5.02801 2.22923 5.05552 2.44882 4.83587L2.68964 4.595L7.84188 9.74724L7.53229 10.0568C7.33409 10.255 7.33409 10.5763 7.53229 10.7745L12.2854 15.5276C12.9154 16.1576 13.9368 16.1576 14.5668 15.5276C15.1968 14.8976 15.1968 13.8762 14.5668 13.2462L9.81371 8.49313Z"/>
</svg>
