<svg width="16" height="16" viewBox="0 0 16 16" fill="#8A93B1" xmlns="http://www.w3.org/2000/svg">
    <g clip-path="url(#clip0)">
        <path d="M8.05884 0C4.68567 0 1.94116 2.74451 1.94116 6.11768V11.7646C1.94116 12.5432 2.57446 13.1765 3.35291 13.1765C4.13147 13.1765 4.76477 12.5432 4.76477 11.7646V7.05884C4.76477 6.2804 4.13147 5.64709 3.35291 5.64709C3.19446 5.64709 3.04456 5.6792 2.9021 5.72754C3.10291 3.0553 5.33655 0.941162 8.05884 0.941162C10.7797 0.941162 13.0127 3.05334 13.2153 5.72375C13.0737 5.67529 12.923 5.64709 12.7648 5.64709C11.9862 5.64709 11.3529 6.2804 11.3529 7.05884V11.7646C11.3529 12.5432 11.9862 13.1765 12.7648 13.1765C12.9305 13.1765 13.0874 13.1426 13.2354 13.0898V13.6471C13.2354 13.9067 13.0239 14.1177 12.7648 14.1177H9.38391C9.18896 13.571 8.67151 13.1765 8.05884 13.1765C7.2804 13.1765 6.64709 13.8098 6.64709 14.5883C6.64709 15.3667 7.2804 16 8.05884 16C8.67151 16 9.18896 15.6053 9.38391 15.0588H12.7648C13.5432 15.0588 14.1765 14.4255 14.1765 13.6471C14.1765 10.8165 14.1765 8.95129 14.1765 6.11768C14.1765 2.74451 11.432 0 8.05884 0V0Z"/>
        <path d="M15.1765 6.67493V12.1486C15.723 11.9537 16.1177 11.4363 16.1177 10.8235V8C16.1177 7.38733 15.723 6.86987 15.1765 6.67493Z"/>
        <path d="M0 8V10.8235C0 11.4363 0.394653 11.9537 0.941162 12.1486V6.67493C0.394653 6.86987 0 7.38733 0 8Z"/>
    </g>
    <defs>
        <clipPath id="clip0">
            <rect width="16" height="16" fill="white"/>
        </clipPath>
    </defs>
</svg>
