<svg width="16" height="16" viewBox="0 0 16 16" fill="#8A93B1" xmlns="http://www.w3.org/2000/svg">
    <path d="M13.4988 14.1042C13.4701 12.2606 12.8957 10.5843 11.8746 9.37059C10.8593 8.16431 9.48347 7.5 7.99997 7.5C6.51647 7.5 5.1406 8.16431 4.12538 9.37059C3.10519 10.583 2.53122 12.257 2.50122 14.0983C3.0781 14.3872 5.46528 15.5 7.99997 15.5C10.7408 15.5 12.9639 14.3938 13.4988 14.1042Z"/>
    <path d="M8 6.5C9.51878 6.5 10.75 5.26878 10.75 3.75C10.75 2.23122 9.51878 1 8 1C6.48122 1 5.25 2.23122 5.25 3.75C5.25 5.26878 6.48122 6.5 8 6.5Z"/>
</svg>
